HIERARCHY
ROOT Hips
{
	OFFSET -0.001795 -0.223333 0.028219
	CHANNELS 6 Xposition Yposition Zposition Zrotation Yrotation Xrotation 
	JOINT LeftUpLeg
	{
		OFFSET 0.069520 -0.091406 -0.006815
		CHANNELS 3 Zrotation Yrotation Xrotation
		JOINT LeftLeg
		{
			OFFSET 0.034277 -0.375199 -0.004496
			CHANNELS 3 Zrotation Yrotation Xrotation
			JOINT LeftFoot
			{
				OFFSET -0.013596 -0.397961 -0.043693
				CHANNELS 3 Zrotation Yrotation Xrotation
				JOINT LeftToe
				{
					OFFSET 0.026358 -0.055791 0.119288
					CHANNELS 3 Zrotation Yrotation Xrotation
					End Site
					{
						OFFSET 0.000000 0.000000 0.000000
					}
				}
			}
		}
	}
	JOINT RightUpLeg
	{
		OFFSET -0.067670 -0.090522 -0.004320
		CHANNELS 3 Zrotation Yrotation Xrotation
		JOINT RightLeg
		{
			OFFSET -0.038290 -0.382569 -0.008850
			CHANNELS 3 Zrotation Yrotation Xrotation
			JOINT RightFoot
			{
				OFFSET 0.015774 -0.398415 -0.042312
				CHANNELS 3 Zrotation Yrotation Xrotation
				JOINT RightToe
				{
					OFFSET -0.025372 -0.048144 0.123348
					CHANNELS 3 Zrotation Yrotation Xrotation
					End Site
					{
						OFFSET 0.000000 0.000000 0.000000
					}
				}
			}
		}
	}
	JOINT Spine
	{
		OFFSET -0.002533 0.108963 -0.026696
		CHANNELS 3 Zrotation Yrotation Xrotation
		JOINT Spine1
		{
			OFFSET 0.005487 0.135180 0.001092
			CHANNELS 3 Zrotation Yrotation Xrotation
			JOINT Spine2
			{
				OFFSET 0.001457 0.052922 0.025425
				CHANNELS 3 Zrotation Yrotation Xrotation
				JOINT Neck
				{
					OFFSET -0.002778 0.213870 -0.042857
					CHANNELS 3 Zrotation Yrotation Xrotation
					JOINT Head
					{
						OFFSET 0.005152 0.064970 0.051349
						CHANNELS 3 Zrotation Yrotation Xrotation
						End Site
						{
							OFFSET 0.000000 0.000000 0.000000
						}
					}
				}
				JOINT LeftShoulder
				{
					OFFSET 0.078845 0.121749 -0.034090
					CHANNELS 3 Zrotation Yrotation Xrotation
					JOINT LeftArm
					{
						OFFSET 0.090977 0.030469 -0.008868
						CHANNELS 3 Zrotation Yrotation Xrotation
						JOINT LeftForeArm
						{
							OFFSET 0.259612 -0.012772 -0.027456
							CHANNELS 3 Zrotation Yrotation Xrotation
							JOINT LeftHand
							{
								OFFSET 0.249234 0.008986 -0.001171
								CHANNELS 3 Zrotation Yrotation Xrotation
								End Site
								{
									OFFSET 0.000000 0.000000 0.000000
								}
							}
						}
					}
				}
				JOINT RightShoulder
				{
					OFFSET -0.081759 0.118833 -0.038615
					CHANNELS 3 Zrotation Yrotation Xrotation
					JOINT RightArm
					{
						OFFSET -0.096012 0.032551 -0.009143
						CHANNELS 3 Zrotation Yrotation Xrotation
						JOINT RightForeArm
						{
							OFFSET -0.253742 -0.013329 -0.021401
							CHANNELS 3 Zrotation Yrotation Xrotation
							JOINT RightHand
							{
								OFFSET -0.255298 0.007772 -0.005559
								CHANNELS 3 Zrotation Yrotation Xrotation
								End Site
								{
									OFFSET 0.000000 0.000000 0.000000
								}
							}
						}
					}
				}
			}
		}
	}
}
MOTION
Frames: 9
Frame Time: 0.050000
-0.013323 0.922302 1.587602 0.961403 -12.733872 -3.152449 -10.127072 -0.472469 -2.375958 0.982368 -0.340654 17.217202 0.245052 -4.724470 -13.780836 0.000000 0.000000 0.000000 -1.890465 0.388767 -3.974619 -2.683749 7.993978 53.073718 8.038586 4.949411 19.134444 0.000000 0.000000 0.000000 6.913778 -0.632242 7.428789 -4.364362 2.095759 -0.514163 -5.346105 11.190831 5.134416 10.254734 -3.469235 -21.725204 0.000000 0.000000 0.000000 -21.427828 -11.643813 2.697442 -47.997539 -10.209043 -1.340534 -1.966336 -28.341479 1.233162 0.000000 0.000000 0.000000 25.365450 0.391774 -0.234524 55.792454 8.367982 -2.205518 1.112538 31.608097 1.891679 0.000000 0.000000 0.000000 
-0.012674 0.923040 1.585857 1.075141 -13.013313 -3.387305 -10.388082 -0.402110 -1.937818 1.143772 -0.382653 16.586502 0.263707 -4.439588 -13.490266 0.000000 0.000000 0.000000 -2.070290 0.422141 -4.372687 -2.463727 7.810794 52.557507 7.319648 4.646778 17.408374 0.000000 0.000000 0.000000 6.527885 -0.655808 8.066006 -4.184112 2.024814 -0.235534 -5.419349 11.212933 4.223952 10.391862 -3.475120 -21.973688 0.000000 0.000000 0.000000 -21.354338 -11.246082 2.441805 -48.427417 -9.882313 -1.409926 -1.812473 -28.267442 1.174498 0.000000 0.000000 0.000000 24.722029 0.303979 -0.312864 55.961162 9.026061 -1.784595 0.795511 31.292397 1.768121 0.000000 0.000000 0.000000 
-0.012425 0.924513 1.580912 1.040741 -13.193289 -3.549822 -10.310165 -0.266663 -1.187058 1.196173 -0.402916 14.998263 0.185321 -4.360791 -12.971091 0.000000 0.000000 0.000000 -2.207295 0.461635 -4.855861 -2.124682 7.522466 52.034877 4.967472 1.851553 14.730672 0.000000 0.000000 0.000000 6.600294 -0.644333 7.947088 -4.521063 2.192922 -0.231494 -4.951395 10.722894 3.859080 9.899757 -3.307908 -21.719874 0.000000 0.000000 0.000000 -21.667933 -10.253434 2.054802 -48.355344 -9.297395 -1.658981 -3.025954 -28.439205 1.519070 0.000000 0.000000 0.000000 24.387006 0.018609 -0.712903 55.363517 9.047743 -1.664861 1.316196 31.275122 1.837312 0.000000 0.000000 0.000000 
-0.012330 0.925704 1.571727 1.279004 -13.037250 -3.707011 -10.382252 -0.198437 -0.811968 1.193417 -0.410787 13.498749 0.008287 -4.568653 -12.286124 0.000000 0.000000 0.000000 -2.131739 0.514813 -5.500849 -2.084397 7.259251 51.111774 3.113371 1.036268 9.772790 0.000000 0.000000 0.000000 6.010486 -0.636887 8.282400 -4.113464 2.001590 -0.055749 -5.167348 10.350921 3.849168 9.958357 -3.421797 -21.429064 0.000000 0.000000 0.000000 -22.009040 -9.952856 1.939950 -47.846258 -9.514584 -1.564012 -3.411077 -27.591361 1.585281 0.000000 0.000000 0.000000 24.422049 0.352696 -0.586607 55.136911 9.589027 -1.405111 1.226525 31.797317 1.832908 0.000000 0.000000 0.000000 
-0.012947 0.926921 1.556040 1.407721 -13.080805 -4.350619 -10.173212 -0.134634 -0.379579 1.099573 -0.386070 12.148100 -0.122885 -4.533452 -11.460898 0.000000 0.000000 0.000000 -1.438284 0.589647 -6.284008 -1.593958 7.075105 51.603521 2.505569 1.433564 6.979646 0.000000 0.000000 0.000000 5.172718 -0.638042 9.237374 -3.746151 1.845401 0.367957 -5.065198 9.947681 4.037290 9.738309 -3.134373 -22.653108 0.000000 0.000000 0.000000 -22.026739 -9.808358 1.991025 -47.169290 -9.439195 -1.622734 -3.159184 -28.660348 1.604935 0.000000 0.000000 0.000000 24.254058 -0.093316 -0.985053 54.377042 10.564723 -0.945803 2.226541 32.672583 2.136077 0.000000 0.000000 0.000000 
-0.014222 0.927685 1.533393 0.739122 -12.623744 -4.743372 -9.057011 -0.217683 -0.790090 1.212623 -0.422251 11.463010 -0.324367 -4.890225 -10.812467 0.000000 0.000000 0.000000 -0.459144 0.729096 -7.457027 -0.885087 6.412959 51.195462 0.853301 0.231751 2.917504 0.000000 0.000000 0.000000 5.178945 -0.732831 10.827559 -3.393937 1.642442 -0.139048 -4.929956 9.115048 5.344543 9.590347 -2.981816 -23.746005 0.000000 0.000000 0.000000 -21.016965 -9.728408 2.253100 -47.635466 -11.211188 -1.144419 -2.587649 -28.592745 1.511666 0.000000 0.000000 0.000000 23.503364 0.048739 -1.021650 54.269538 11.340622 -0.657194 3.963781 33.807653 2.699817 0.000000 0.000000 0.000000 
-0.015992 0.929442 1.505953 0.326413 -13.050215 -4.226307 -7.838326 -0.465629 -2.373527 0.791265 -0.310187 10.305690 -0.467100 -4.486116 -9.285101 0.000000 0.000000 0.000000 -0.012631 1.131015 -10.849767 0.153528 6.069380 52.301126 -0.583156 -1.765994 0.494086 0.000000 0.000000 0.000000 4.733712 -0.739396 11.494572 -2.730167 1.311238 -0.188520 -4.679003 8.988963 5.715978 8.640535 -2.324359 -24.984817 0.000000 0.000000 0.000000 -20.560219 -9.343206 2.194254 -47.734143 -11.377778 -1.152328 -2.333091 -30.322315 1.563866 0.000000 0.000000 0.000000 21.929996 0.461262 -0.802883 55.225417 11.075036 -0.719102 4.286090 34.925674 2.882677 0.000000 0.000000 0.000000 
-0.017974 0.931792 1.476567 0.084968 -13.646686 -3.656324 -6.882420 -0.748210 -4.424197 0.645593 -0.263486 9.551650 -0.589776 -3.835192 -7.246962 0.000000 0.000000 0.000000 0.025438 1.215770 -11.521788 0.598878 5.521377 50.046912 -1.236228 -2.263046 -1.396375 0.000000 0.000000 0.000000 4.373057 -0.742448 12.160965 -2.790226 1.321862 -0.560270 -3.874630 9.163865 6.261467 8.368949 -2.176123 -25.340272 0.000000 0.000000 0.000000 -20.693229 -9.341138 2.307771 -46.988880 -12.038317 -0.951242 -1.637844 -31.489459 1.465131 0.000000 0.000000 0.000000 20.818584 0.988222 -0.520523 56.064693 11.405978 -0.544138 3.064784 34.461216 2.463924 0.000000 0.000000 0.000000 
-0.020242 0.933478 1.447636 0.086516 -13.913982 -2.777835 -5.920225 -0.845255 -5.503075 0.155276 -0.136552 6.420795 -0.971937 -3.684634 -4.566382 0.000000 0.000000 0.000000 -0.318883 1.148281 -11.139372 0.805664 5.300982 49.124434 0.550110 -3.132227 7.529004 0.000000 0.000000 0.000000 4.260098 -0.723732 11.760790 -2.845610 1.371490 -0.077588 -3.877601 9.687724 5.999091 8.535014 -2.271245 -24.878824 0.000000 0.000000 0.000000 -20.096309 -8.885003 1.961806 -47.087951 -11.661781 -1.045736 -1.970760 -32.398095 1.566047 0.000000 0.000000 0.000000 20.161006 0.284628 -0.783595 57.454358 11.535567 -0.392571 3.092704 33.948112 2.465102 0.000000 0.000000 0.000000 
